# xmcd
# Copyright (C) 1995-1998 Ti Kan
#
# Track frame offsets:
#       150
#       14007
#       29621
#       46396
#       62954
#       78205
#       95391
#       109773
#       125603
#       142325
#       159987
#       180422
#
# Disc length: 2624 seconds
#
# Revision: 2
# Processed by: cddbd v1.4PL0 Copyright (c) Steve Scherf et al.
# Submitted via: CD-Transfer v1.0
#
DISCID=a30a3e0c
DTITLE=Marco Gottardi - Something Special
DYEAR=2003
DGENRE=
TTITLE0=Real Adventures
TTITLE1=Take It, Don't Break It
TTITLE2=From Dust Til Down
TTITLE3=Do It The Romantic Way
TTITLE4=Greenhorn
TTITLE5=Something Special
TTITLE6=The Only Cowboy In Town
TTITLE7=Georgina
TTITLE8=Ease Your Heart
TTITLE9=Broken Dreams
TTITLE10=A Girl Worth Waiting For
TTITLE11=The Harder The Times
EXTD=
EXTT0=
EXTT1=
EXTT2=
EXTT3=
EXTT4=
EXTT5=
EXTT6=
EXTT7=
EXTT8=
EXTT9=
EXTT10=
EXTT11=
PLAYORDER=
